<svg viewBox="0 0 60 60" xmlns="http://www.w3.org/2000/svg"><path d="M60 30A29.989 29.989 0 0 1 8.92 51.33 29.96 29.96 0 0 1 8 9.62 28.62 28.62 0 0 1 12 6a30 30 0 0 1 36 0 28.62 28.62 0 0 1 4 3.62A29.836 29.836 0 0 1 60 30Z" fill="#596775" class="fill-6b70de"></path><path d="m57 21-5.92 30.33a29.962 29.962 0 0 1-42.16 0L3 21l5-4.44V6h44v10.56Z" fill="#ffc82c" class="fill-ffc82c"></path><path d="M8 6h44v15H8z" fill="#f2bb20" class="fill-f2bb20"></path><path d="M8 6v14l4-7-4-7zM52 6v14l-4-7 4-7z" fill="#d38e1d" class="fill-d38e1d"></path><path d="M12 13v8H3l9-8zM48 13v8h9l-9-8z" fill="#ffe62c" class="fill-ffe62c"></path><circle cx="14" cy="29" r="2" fill="#000000" class="fill-000000"></circle><circle cx="47" cy="29" r="2" fill="#000000" class="fill-000000"></circle><path d="M47 31v1.118C47 41.994 39.837 50 31 50h-1c-8.837 0-16-8.006-16-17.882V31" stroke="#d6a723" stroke-width="1.58578px" fill="none" stroke-linecap="round" stroke-miterlimit="10" class="stroke-d6a723"></path><path d="M47 29v1a16 16 0 0 1-16 16h-1a16 16 0 0 1-16-16v-1" stroke="#f2572f" stroke-width="1.5px" fill="none" stroke-linecap="round" stroke-miterlimit="10" class="stroke-f2572f"></path></svg>